<svg xmlns="http://www.w3.org/2000/svg" enable-background="new 0 0 64 64" viewBox="0 0 64 64" id="cash-on-delivery"><path fill="#eecf79" d="M18.9199219,48.0019531c-5.5710649,0.2281876-9.8177328-7.1143723-6.8005772-11.8160248
		c-0.0002041,0.0001068,2.3796787-4.0555573,2.3796787-4.0555573l-4.3847656-1.6987305
		c-0.1171875-0.0449219-0.1923828-0.1020508-0.2333984-0.140625L9.0634766,23.246582l16.1777344-11.0717773
		C25.4121094,12.0581055,25.6005859,12,25.8056641,12h27.3378906V9h2v17.2680664h-2V22H43.25
		c-2.6233635-0.2154121-5.521759,2.3660183-7.5898895,3.6616974c0.0000458-0.0000763-9.5937042,9.7562714-9.5937042,9.7562714
		S26.8125,37.7246094,26.8125,37.7246094C28.5483284,42.5419769,24.0265312,48.4394684,18.9199219,48.0019531z"></path><path fill="#5d250b" d="M58.1396484,5h-8c-0.5527344,0-1,0.4477539-1,1v2H25.8095703
			c-1.0263672,0-2.0058594,0.3041992-2.8242188,0.875L6.3037109,20.2861328
			c-0.9160156,0.6298828-1.4091797,1.7075195-1.2871094,2.8198242l0.9296875,7.9667969
			c0.258606,1.3919067,1.3293457,2.5495605,2.7131958,3.0895996c-4.5138979,7.7434082,1.4975433,17.9990959,10.4803562,17.837513
			C23.7294922,52,27.8515625,49.4462891,29.8955078,45.3354492c0.2460938-0.4946289,0.0439453-1.0947266-0.4501953-1.3408203
			c-0.4970703-0.2460938-1.0947266-0.043457-1.3408203,0.4501953C26.4003906,47.871582,22.9658203,50,19.1396484,50
			c-7.8621359,0.1063232-12.7770958-9.0772209-8.3190918-15.5410767c0.5806274-0.0681763,1.1152954-0.2587891,1.5778809-0.5552979
			c-5.3097568,5.5958595-1.1861925,15.1564941,6.6017189,15.0963058c5.2224922,0.0284843,9.4874744-4.5799484,8.9456444-9.7925339
			l1.7680664-1.7972412c0.9086742-0.9426765-0.5051098-2.3282547-1.4277782-1.4003525
			c0.0000439-0.0000381-2.419878,2.4599228-2.419878,2.4599228c-0.6826172,0.6958008-1.7509766,0.7758789-2.5546875,0.1762695
			c-0.8427734-0.6010742-1.0546875-1.7929688-0.4746094-2.6538086l1.4151611-2.0889893
			c0.0273457,0.0030899,5.7409515-8.5057659,5.7674999-8.5135193c0.7177296-1.0639954,0.6815968-2.4673157-0.0918407-3.4931946
			l-2.1816406-2.8818359c-0.8564453-1.1264648-2.3603516-1.5063477-3.6777344-0.9165039
			c-0.4654217,0.2359047-4.9485092,2.3620205-5.5401001,2.6548138c-0.1358643,0.0351887-0.2607422,0.0925617-0.3692017,0.1768513
			l-5.6102295,2.6883545c-0.3603516,0.1723633-0.5839844,0.5429688-0.5673828,0.9423828l0.2294922,5.690918
			c0.0150423,0.5070477-0.1306133,1.0627937-0.433589,1.5097599c-1.077795,1.496088-3.4964285,0.5036335-3.8545475-0.9867191
			c0.0000505-0.0000916-0.9188948-7.893158-0.9188948-7.893158c-0.0400391-0.3671875,0.1298828-0.7387695,0.4306641-0.9462891
			l16.6865234-11.4145508C24.6103516,10.1801758,25.1943359,10,25.8095703,10h23.3300781v14H43.25
			c-0.9892578,0-1.9521484,0.293457-2.7871094,0.8496094l-3.4296875,2.2998047
			c-0.10532,0.0475769-1.0509872,1.0534401-1.1572342,1.1503849c-0.3867111,0.394537-0.3808517,1.0278378,0.0136795,1.4140682
			c0.3933983,0.3865318,1.0276337,0.3809242,1.4140625-0.0136719l0.9287109-0.9467773l3.3417969-2.2412109
			C42.0703125,26.1821289,42.6650391,26,43.25,26h5.8896484v3c0,0.5522461,0.4472656,1,1,1s1-0.4477539,1-1V7h6v22.0097656
			c0,0.5522461,0.4472656,1,1,1s1-0.4477539,1-1V6C59.1396484,5.4477539,58.6923828,5,58.1396484,5z M23.7103271,31.1366577
			l-0.5968628,0.8811646c-3.0633202-1.6760082-7.1953897-1.1993961-9.7814941,0.9998169
			c0.3664513-0.4765739,0.6201677-1.05867,0.7523193-1.6158447C16.9796753,29.6968994,20.6992798,29.602417,23.7103271,31.1366577z
			 M19.3244019,28.0066528l0.3972778-5.6080933l2.7207031-1.303833l-0.4135132,7.2652588
			C21.1481323,28.1411743,20.2424927,28.0206909,19.3244019,28.0066528z M24.4902344,41.0415039
			c0.5009155,0,0.9993286-0.0974731,1.467041-0.2839966C24.8032932,49.435379,12.2298126,48.801239,12,39.9998512
			c-0.1098175-5.0224991,5.5078564-8.5660896,9.9909058-6.3248634c-0.4636993,0.6989899-1.24049,1.6790924-1.3713989,2.5159912
			C20.4247437,36.1115723,20.2178955,36.0562744,20,36.0279541V35c0-0.5522461-0.4472656-1-1-1s-1,0.4477539-1,1v1.0267334
			c-1.123064,0.1300011-1.9855709,1.0355339-1.9999905,2.0831451C16,38.1098633,16,39,16,39c0,1.1030273,1.0449219,2,2.3300781,2
			C18.5532875,41.024971,19.8404293,40.9268951,20,41.0864258v0.8271484
			c-0.1609116,0.1613884-1.4437599,0.059742-1.6699219,0.0864563C18.1357422,42,18.0253906,41.9057617,18.0136719,41.8925781
			c-0.0595703-0.5483398-0.5478516-0.9467773-1.1015625-0.8867188C15.0035868,41.490612,16.5042343,43.9513397,18,43.9721069V45
			c0,0.5522461,0.4472656,1,1,1s1-0.4477539,1-1v-1.0286255C21.1279297,43.8323364,22,43.0060425,22,42v-1
			c0-1.1030273-1.0449219-2-2.3300781-2C19.4441338,38.9801826,18.1624355,39.0701065,18,38.9135742
			c-0.0013866-0.0256348-0.0035839-0.7892456,0.0087852-0.7871056c0.0927696-0.2307053,1.452301-0.0907173,1.6611366-0.1265068
			c0.1875,0.0000381,0.3066406,0.0908585,0.3291016,0.1328506c0.0687866,0.5101929,0.5021973,0.866272,1.0182495,0.852356
			C21.6606293,40.2260971,23.1152401,41.0679092,24.4902344,41.0415039z M26.1523438,20.2236328l2.1796875,2.878418
			c0.2617188,0.3481445,0.2734375,0.8066406,0.0302734,1.1669922l-3.5109863,5.1831665
			c-0.2808228-0.1523438-0.5675049-0.2911377-0.8581543-0.4200439l0.5079346-8.9240112
			C25.0299854,19.7783699,25.7406883,19.6601067,26.1523438,20.2236328z M17.6470947,23.3927612l-0.3364868,4.7495117
			c-1.0894775,0.1669922-2.1470337,0.4806519-3.1452637,0.9377441l-0.1594849-3.9423218L17.6470947,23.3927612z"></path><path fill="#de6e52" d="M50 40v.6000977c0 .3686523-.203125.7075195-.5283203.8818359C49.3242188 41.5610352 49.1616211 41.6000977 49 41.6000977c-.1938477 0-.387207-.0561523-.5546875-.1679688L46 39.8017578l-2.4453125 1.6303711c-.3081055.2036133-.7026367.2236328-1.0263672.0498047C42.203125 41.3076172 42 40.96875 42 40.6000977V40h-9v18c0 .5522461.4477539 1 1 1h24c.5522461 0 1-.4477539 1-1V40H50zM50 38h9v-4c0-.5522461-.4477539-1-1-1h-8V38zM46.5546875 37.7680664L48 38.7314453V33h-4v5.7314453l1.4453125-.9633789C45.78125 37.5444336 46.21875 37.5444336 46.5546875 37.7680664zM42 38v-5h-8c-.5522461 0-1 .4477539-1 1v4H42z"></path></svg>